<?xml version="1.0" encoding="utf-8"?>
<!-- Generator: Adobe Illustrator 18.1.0, SVG Export Plug-In . SVG Version: 6.00 Build 0)  -->
<svg version="1.1" id="Layer_1" xmlns="http://www.w3.org/2000/svg" xmlns:xlink="http://www.w3.org/1999/xlink" x="0px" y="0px"
	 viewBox="0 0 36 18" enable-background="new 0 0 36 18" xml:space="preserve">
<g opacity="0.25">
	<path fill="#E0E1E0" d="M17,16.5c0,0.8-0.7,1.5-1.5,1.5h-14C0.7,18,0,17.3,0,16.5v-14C0,1.7,0.7,1,1.5,1h14C16.3,1,17,1.7,17,2.5
		V16.5z"/>
	<g>
		<path fill="#717171" d="M16,1c0.6,0,1,0.4,1,1v14c0,0.6-0.7,1-1.3,1h-14C1.2,17,1,16.6,1,16V2c0-0.6,0.2-1,0.7-1H16 M15.7,0h-14
			C0.6,0,0,0.9,0,2v14c0,1.1,0.6,2,1.7,2h14c1.1,0,2.3-0.9,2.3-2V2c0-1.1-1-2-2.1-2H15.7z"/>
	</g>
</g>
<g opacity="0.25">
	<path fill="#E0E1E0" d="M35,16.5c0,0.8-0.7,1.5-1.5,1.5h-14c-0.8,0-1.5-0.7-1.5-1.5v-14C18,1.7,18.7,1,19.5,1h14
		C34.3,1,35,1.7,35,2.5V16.5z"/>
	<g>
		<path fill="#717171" d="M34,1c0.6,0,1,0.4,1,1v14c0,0.6-0.7,1-1.3,1h-14c-0.6,0-0.7-0.4-0.7-1V2c0-0.6,0.2-1,0.7-1H34 M33.7,0h-14
			C18.6,0,18,0.9,18,2v14c0,1.1,0.6,2,1.7,2h14c1.1,0,2.3-0.9,2.3-2V2c0-1.1-1-2-2.1-2H33.7z"/>
	</g>
</g>
<polygon fill="#9D9D9D" points="24.8,14.7 20.2,9.7 22,8.1 24.8,11.1 32,3.9 33.8,5.6 "/>
</svg>
