<?xml version="1.0" encoding="utf-8"?>
<!-- Generator: Adobe Illustrator 18.1.0, SVG Export Plug-In . SVG Version: 6.00 Build 0)  -->
<svg version="1.1" id="Layer_1" xmlns="http://www.w3.org/2000/svg" xmlns:xlink="http://www.w3.org/1999/xlink" x="0px" y="0px"
	 viewBox="0 0 438.6 611.5" enable-background="new 0 0 438.6 611.5" xml:space="preserve">
<g>
	<path fill="#FDC05E" d="M351.7,198.4c-7.2-2.4-14.7-2.7-22.1-1.6c2.1-6.5,1.9-13.6-2.5-19.6c-6.7-9-16.7-13.6-28-12.4
		c-0.2,0-0.5,0.1-0.7,0.1c1-2.5,1.7-5.4,2-8.6c0.9-9-8.9-19-18-18c-5.4,0.6-3.1-5.4-8.5-4.4c0.9-3.1-4.9-2.7-5.9-6
		c-1.9-7.1-9-14.3-16.9-13.4c-2.8,0.3-3.2-2.8-5.9-2.3c0.6-3.8-4.6-0.8-6.8-4.6c-2.9-5-8.6-8.6-14.4-9c14.4-6.4,29.2-15.9,33.7-31.1
		c1.8-6.1-0.2-13.1-4.6-17.5c-5.2-5.2-15.5-7.6-21.8-2.8c-8.9,6.7-17.6,13.7-26.4,20.6c-0.7,0.2-1.4,0.5-2.1,0.6
		c3.2-0.9-0.8,0-1.8,0c-0.2,0-0.4,0-0.6-0.1c-0.8-0.1-1.6-0.3-2.3-0.4c-3.1-0.6-6.2-1.1-9.3-1.2c-4.5-0.2-8.7,0.2-13.1,1.7
		c-11,3.5-21.3,10-31.1,15.9c-9,5.4-17.9,11.1-27.2,16.1c-0.6,0.3-6.6,3.3-4,2.3c-1.4,0.6-2.9,1.2-4.3,1.8c-1.9,0.7-3.7,1.4-5.6,1.9
		c-0.4,0.1-0.8,0.2-1.2,0.3c-0.9-0.7-1.9-1.3-2.9-1.7c-7.1-3-12.8-3-20.2-1.6c-9.2,1.8-18.9,6.7-25.7,13.1c-7.2,6.7-6.7,18.7,0,25.5
		c7.1,7.1,18.1,6.7,25.3,0.1c0.2-0.1,0.5-0.3,0.9-0.5c1.3-0.8,2.7-1.5,4.1-2.1c-2.7,1.2,0.2,0.1,1.8-0.5c2.2,1.3,4.5,2.4,7.3,3.1
		c4.4,1.2,9.1,1.1,13.6,0.4c-0.5,2.5-0.5,5.2,0.3,8c2.3,8.5,9.3,12.2,17.4,13.2c1.1,0.1,2.2,0.2,3.3,0.3c-6,3.3-11.7,7.2-17,12
		c-5.9,5.4-6.7,15-2.9,21.7c-1.1,0.9-2.1,1.8-3.1,2.8c-5.9,5.4-6.8,15.1-2.8,21.8c1.9,3.3,4.7,5.7,7.9,7.1c-1.4,1.1-2.7,2.2-4,3.3
		c-10.7,9.2-18.2,22.4-15.2,36.8c0.7,3.6,3.2,7.1,6.4,9.6c-0.1,1.3-0.1,2.5-0.1,3.8c-2.7,4.5-5,9.3-5.8,14.6c-1.2,7.7,1,15.8,7.5,20
		c-0.5,0.5-1,1.1-1.5,1.6c-5.8,2.8-11.3,6-16.3,10.5c-8.1,7.1-6.2,19.7,1,26.3c-4.5,4.8-8.5,10.2-11.3,15.9
		c-4.1,3.2-8.2,6.4-12.1,9.8c-6.1,5.2-6.7,15.3-2.8,21.8c0,0,0,0.1,0.1,0.1c-3.1,6-2.2,13.4,1.5,18.8c-4.1,3.4-8.2,6.8-11.7,10.8
		c-5.4,6.1-7.1,14.5-2.8,21.8c0.7,1.2,1.6,2.3,2.5,3.3c-1,1.3-2,2.7-3,4c-3.7,5.1-3.1,12.4-0.1,17.9c-5,6.1-6.6,14.1-2.4,21.3
		c1.6,2.7,3.8,4.8,6.5,6.4c0.1,5.1,2.2,10,5.9,13.4c-1.7,2.2-2.9,4.5-3.6,6.8c-2.7,1.8-5.4,3.6-7.4,6.1c-2.1,2.6-3.7,5.4-4.5,8.4
		c-11.1,8-21.6,16.9-30.5,27.1c-5.4,6.2-7.1,14.5-2.8,21.8c3.8,6.5,10.8,9.4,17.6,8.6c0.1,1,0.3,2.1,0.6,3.1c1.9,7,7.2,9.2,15,8.2
		c9-1.1,18.7,1,27.7,0c3.7-0.4,8.3,0.2,12.3-0.7c6.4,2.4,14-3.5,19.1-8.6c7-7,6.9-18.5,0-25.5c-2.4-2.4-5-4-7.9-5.1
		c9.2-8.6,18.1-17.5,24.3-28.4c9.5-11.8,16.7-25.4,21.7-40.5c3.5-10.5-6-23.7-17.4-22.8c-0.7,0.1-1.3,0.1-2,0.2
		c0.3-0.6,0.6-1.2,0.8-1.9c2.7-6.5,0.1-13-4.6-17.3c0-0.7,0-1.4-0.1-2.2c2.6-3.5,5-7.2,6.9-11.2c0.8-1.6,1.4-3.3,1.8-5
		c2.8-3.4,5-7.2,6-11.8c0.9-3.8,0.4-7.9-1-11.6c0.4-0.5,0.8-1.1,1.2-1.6c4.1-5.6,2.9-14-1-19.6c1.3-1.5,2.6-3,3.9-4.4
		c11.9-13.5,23.8-27.1,34.1-42c3.7-5.3-10.1-14.8-12.7-19.9c5.2-5.4,10-11.2,14.3-17.5c5.1-7.7,2.1-17-4-22.6
		c-0.9-2.3-2.3-4.4-3.9-6.2c2-0.6,7,0.1,13.6-5.9c4.1-3.6,6.8-16.3,11.3-17.2c2.3-0.5,4.5-0.8,6.8-1.2c0.5-0.1,4.7-0.7,4.9-0.7
		c17.5-2.1,43.2,19.9,60.8,19.6c32-0.5,68.2-6.6,92.7-28.8c4.6-4.1,5.9-10.4,4.7-16.2c2.1-1,4.2-2.1,6.2-3.4
		C369.4,222.6,366.7,203.5,351.7,198.4z M80.7,135.6c-0.3-0.3-0.6-0.5-0.9-0.8C80.1,135,80.4,135.3,80.7,135.6z M296.1,184.6
		C296.1,184.6,296.1,184.7,296.1,184.6C296.7,183.1,296.6,183.7,296.1,184.6z"/>
	<path opacity="0.5" fill="#E29227" d="M145.4,181.1c-8.3-5.4-17.1-4-25.5,0c-4.8,2.3-7.7,7.1-8.5,12.2c-2.2,1.9-4.1,4.2-5.9,6.9
		c-4.5,6.7-2.6,16.4,2.8,21.8c3.5,3.5,9.1,5.6,14.3,5.3c1.8,1.2,3.8,2.1,5.6,2.6c4.6,1.3,9.7,0.6,13.9-1.8c4-2.4,7-6.3,8.3-10.8
		c0.9-3.3,0.7-6.2-0.1-9.1c0.6-0.8,1.1-1.7,1.6-2.6C156.7,196.8,153.8,186.5,145.4,181.1z M120.8,187.6
		C120.8,187.6,120.8,187.6,120.8,187.6C121.9,186.7,121.5,187.1,120.8,187.6z M121,187.3C122.1,185.7,121.7,186.4,121,187.3
		L121,187.3z"/>
	<path opacity="0.5" fill="#E29227" d="M84.2,523.1c-0.6-17.7-4.9-49.6-29.3-48.2c-21.9,1.3-24.6,27.8-28,44.9
		c-1.4,7.2,0.7,14.4,6,18.8c-0.1,1.2-0.3,2.4-0.4,3.6c-0.4,6.1,0.8,12.3,3.6,17.3c1.8,5.8,6.7,10.8,12.6,12.5
		c4.1,1.1,8.1,0.7,11.6-0.8C81.6,568.3,84.9,540.9,84.2,523.1z"/>
	<path opacity="0.5" fill="#E29227" d="M243,71.7c-9.7-5.4-20-8.3-31.1-8.5c-2.9-0.1-5.7,0.7-8.2,2c-3.8-1.7-8.2-2.2-12.6-1.3
		c-10.2,1.9-23.2,5.6-29.9,14.1c-6.9,8.8-8,18-3.1,28.2c3.6,7.6,12.3,13.1,19.9,15.8c11.4,3.9,25.2,0,36-4.2c10-3.9,20.4-8.4,29-15
		c5.2-4,8.9-8.6,8.9-15.5C252,81.1,248.6,74.8,243,71.7z"/>
	<path opacity="0.5" fill="#E29227" d="M349.3,194.5c-0.9-5.7-7-11.4-12.6-12.6c-4.6-1-9.2-1.5-13.8-1.7c-3-8-13.1-14.9-21.7-11.3
		c-8.3,3.5-15.4,7.4-21.9,13.6c-4.6,4.4-6.3,11.4-4.6,17.5c1.8,6.5,6.5,10.3,12.6,12.6c4.3,1.6,8.9,2.5,13.5,2.9
		c1.1,1.8,2.4,3.3,3.9,4.5c7.1,5.5,14.1,9.6,22.6,12.6c11.3,4,22.6-6.3,22.8-17.4C350.1,208.1,350.5,201.6,349.3,194.5z"/>
	<path fill="#EF9421" d="M412.7,434.4c4.1-5.6,5-13,1.2-19.6c-1-1.8-2.3-3.3-3.7-4.5c1.2-5.7,1.7-11.7,1.5-17.7
		c-0.2-7.2-3.9-12.6-9.1-15.4c2.8-6.3,4.8-12.9,5.8-20c1.7-12.9-16.8-23.4-27.1-15.5c-7.1,5.4-14.2,11-21.2,16.6
		c-3.4,2.7-6.7,5.4-10.1,8.1c-3,2.4-3.6,2.9-5.4,4.2c4.1-7,6.8-14.7,5.8-22.6c-1.2-9.5-7.3-18.3-18-18c-11.1,0.3-20.8,4.6-30.1,10.1
		c-0.1-2.3-0.2-4.5-0.6-6.8c-1.4-10.1-13.5-14.5-22.1-12.6c-21,4.7-43.4,11.3-51.9,33.2c-2.5,6.4,0.4,13.5,5.4,18.1
		c-4.5,4.1-8.8,8.9-11.6,14.3c-5.5,10.8-0.5,21.4,8.7,25.3c-7.9,6.6-15,14.2-20.7,23.4c-6.2,9.9-0.2,23.4,10.8,26.4
		c1.9,0.5,3.8,0.9,5.7,1.2c-6.5,6.9-12.3,14.4-17.8,22.3c-6.9,10,0.4,23.1,10.8,26.4c15.1,4.9,31.3-1.9,44.9-8
		c6.4-2.9,12.7-6,19-9.2c1.4,6.4,6.2,12.8,12.8,13.8c16.7,2.6,32.7,0.7,48.4-3.8c-0.4,5,1,9.8,5,13.8c5.4,5.4,15.2,7.3,21.8,2.8
		c5.2-3.6,10.3-7.3,15.2-11.2c0.4-0.1,0.7-0.2,1.1-0.3c1.4-0.4,2.7-0.8,4.1-1.1c2.1,2.4,4.9,4.2,8.4,5.2c8.8,2.4,20.5-2.9,22.1-12.6
		c0.9-5,0.8-9.2,0.6-14.1c-0.1-4.1-1.6-7.9-3.9-10.9c3.8-5.9,6.8-12.3,8.6-19C429.8,445.8,422.5,436.3,412.7,434.4z"/>
	<path opacity="0.5" fill="#E29227" d="M109.2,381.2c-0.5-3.7-1.6-7.5-3.4-11.1c-4.9-10-14.6-14.6-25.4-13
		c-11.6,1.7-15.8,14.2-16.8,24.2c-0.1,1.4,0,2.7,0.2,4c-3.1,4.6-5.2,9.7-4.9,15.4c0.5,8.5,5.2,16.2,12.9,20.1
		c9.6,4.8,18.4,1.8,24.6-6.5c-2.8,3.8-0.1,0.2,0.4-0.4c0.8-1,1.7-2,2.5-3c2.5-3.2,5.1-6.3,6.8-10c0.7-1.6,1.3-3.2,1.8-4.8
		c0.7-1.3,1.3-2.6,1.7-4C110.7,388.1,110.5,384.5,109.2,381.2z"/>
	<g>
		<path fill="#7D756E" d="M206.2,179.2c0.4,3.7,0.7,6.1,0.7,6.1l9.9-0.8c0,0,0-2.5-0.2-6.1c-0.2-3.7-0.5-8.6-0.9-13.5
			c-0.4-4.9-0.8-9.8-1.2-13.4c-0.4-3.7-0.7-6.1-0.7-6.1l-9.8,0.8c0,0,0.1,2.5,0.2,6.1c0.2,3.7,0.5,8.6,0.8,13.5
			C205.4,170.7,205.8,175.6,206.2,179.2z"/>
		<path fill="#7D756E" d="M248.3,157.2c0.8,2.3,1.5,4.7,2.2,6.9c0.7,2.2,1.5,4.2,2,5.9c1.2,3.5,2.2,5.7,2.2,5.7l9.4-3
			c0,0-0.6-2.4-1.6-5.9c-0.5-1.8-1.1-3.8-1.8-6c-0.7-2.2-1.5-4.5-2.2-6.8c-0.8-2.3-1.6-4.6-2.4-6.8c-0.8-2.2-1.6-4.2-2.2-5.9
			c-1.3-3.4-2.3-5.7-2.3-5.7l-8.4,2.7c0,0,0.5,2.4,1.5,6c0.5,1.8,1,3.9,1.7,6.1C246.9,152.5,247.6,154.8,248.3,157.2z"/>
		<polygon fill="#7D756E" points="294.4,223.5 283,224.4 286.5,247.2 294.6,246.6 		"/>
		<polygon fill="#7D756E" points="322.1,217.2 311.1,220.4 319.7,241.9 326.4,239.9 		"/>
		<path fill="#7D756E" d="M437.6,516.4l-13.1-91.4l-3.2-22.9c-1-7.6-2.1-15.3-3.1-22.9c-2-15.3-3.9-30.5-5.6-45.9l-0.5-4.4l-4.5-0.2
			l-33.5-1.6c0-2.3,0-5.3,0.1-9c0-1,0-2,0.1-3.1c0-1.1,0-2.3,0-3.5c0.1-2.4-0.3-5-0.5-7.7c-0.4-2.7-0.8-5.4-1.6-8.1
			c-0.3-1.4-0.8-2.8-1.2-4.1l-0.7-2.1l-0.9-2c-0.6-1.3-1.1-2.7-1.9-4c-0.7-1.3-1.4-2.6-2.2-3.8c-1.6-2.4-3.4-4.7-5.3-6.7
			c-1.9-2-4-3.8-6-5.4c-1.1-0.7-2.1-1.4-3.1-2.1c-1-0.6-2-1.2-3-1.7c-0.4-0.3-0.9-0.5-1.3-0.7c1.9-1.7,3.8-3.4,5.5-5.4
			c6.1-6.9,10.1-15.6,11.6-24.5c0.8-4.4,1.1-8.9,1.1-13.4l-0.1-3.1c-0.1-1.3-0.2-2.4-0.3-3.5c-0.3-2.3-0.8-4.6-1.4-6.9
			c-1.4-4.6-3.8-9-6.7-12.6c-3-3.7-6.5-6.7-10-9.3c-7.1-5.2-14.4-9.1-21.4-13.2c-3.5-2-6.9-4-10.2-6.1l-1.3-0.8
			c-0.3-0.2-0.2-0.2-0.3-0.2c0,0-0.2-0.1-0.3-0.2c-0.4-0.4-1-0.9-1.6-1.6c-1.2-1.3-2.3-2.8-3.5-4.4c-4.7-6.3-9.6-13-15.4-19
			c-2.8-3.1-5.8-6-8.7-9l-4.5-4.5c-1.4-1.4-3.1-2.9-4.6-4.3c-6.3-5.6-13.1-10.6-20-15.3c-4.9-3.2-9.8-6.2-14.9-9.1
			c2.2-2.5,4.4-5.1,6.5-7.6L257,76l5.4-6.7c0.9-1.2,1.8-2.2,2.8-3.5l1.4-2l0.6-0.9l0.2-0.2l0-0.1l0.2-0.3l0.2-0.4
			c0.3-0.6,0.5-1.1,0.7-1.6c0.6-2.1,0.5-3.8,0.3-5.1c-0.2-1.3-0.5-2.4-0.9-3.4c-0.7-2-1.6-3.6-2.6-5.1c-2-3-4.1-5.6-7.4-8.1
			c-0.8-0.6-1.8-1.2-3.1-1.8c-0.3-0.1-0.6-0.3-1-0.4l-0.6-0.2c-0.3-0.1-0.6-0.2-0.9-0.2c-0.3-0.1-0.6-0.1-0.9-0.2l-0.3,0l-0.1-0.1
			l-0.1-0.1l-0.5-0.2l-0.1,0l-0.7,0.2c-3.3,0.2-4.9,1.2-6.6,1.8c-3.2,1.4-5.8,3-8.4,4.6c-5,3.3-9.7,6.7-14.1,10.4
			c-4.5,3.6-8.9,7.2-12.8,11.4c-1.6,1.6-3.1,3.3-4.6,5c0-0.3,0-0.6-0.1-1c-0.4-6-0.1-14,0.8-21.8c0.4-3.9,0.9-7.9,1.6-11.5
			c0.4-2.5,0.9-4.8,1.3-6.9c6.5-0.9,11.6-6.3,11.9-13.1c0.3-7.6-5.6-14.1-13.2-14.4c-7.6-0.3-14.1,5.6-14.4,13.2
			c-0.3,5.7,3,10.8,7.9,13.1c-0.1,2.2-0.3,4.6-0.5,7.2c-0.3,3.7-0.9,7.6-1.5,11.5c-1.2,7.8-3,15.6-4.9,21.3
			c-0.4,1.2-0.8,2.4-1.2,3.4c-0.7-0.5-1.4-0.9-2-1.3l-1.2-0.7l-1.8-0.8c-2.1-0.8-4.2-1.3-6.3-1.6c-4.2-0.6-8.3-0.3-12.2,0.2
			c-3.9,0.6-7.7,1.7-11.3,3.2c-3.6,1.5-7,3.3-10.3,5.3c-3.3,2.1-6.4,4.4-9.3,7.2c-0.7,0.6-1.6,1.6-2.2,2.3l-0.4,0.5l-0.3,0.4
			l-0.4,0.5c-0.6,0.7-0.8,1.2-1.2,1.7c-1,1.7-1.6,3.2-2.2,4.7c-0.9-0.8-1.9-1.7-3-2.7c-2.5-2.4-5.3-5.3-8-8.5
			c-2.8-3.2-5.5-6.8-8.2-10.5c-4.5-6.1-8.6-12.3-11.8-17.7c1.8-2.2,3-5.1,3.2-8.2c0.3-7.6-5.6-14.1-13.2-14.4
			C81.4,29.1,75,35,74.6,42.6c-0.3,7.6,5.6,14.1,13.2,14.4c1.6,0.1,3.2-0.2,4.7-0.6c3.9,4.9,8.3,11,12.5,17.4
			c2.5,3.8,4.9,7.6,6.9,11.4c2.1,3.7,3.8,7.3,5.2,10.5c0.8,2,1.5,3.8,2.1,5.3c-9.8,0.6-19.5,1.4-29.3,2.3
			c-6.8,0.7-13.5,1.4-20.4,2.6c-1.7,0.3-3.5,0.6-5.3,1c-0.9,0.2-1.8,0.4-2.9,0.8l-0.8,0.2l-0.6,0.2l-0.6,0.2l-0.3,0.1l-0.2,0.1
			l-0.3,0.1c-0.2,0.1-0.4,0.2-0.6,0.3c-2.8,1.7-4.1,3.5-5.4,5.3c-1.2,1.8-2.1,3.5-2.9,5.4c-1.5,3.7-2.7,7.3-2.8,12
			c0,1.2,0.1,2.5,0.5,4c0.1,0.3,0.3,1,0.5,1.4l0.3,0.7l0.2,0.4l0.1,0.1l0.1,0.2l0.3,0.5c0.2,0.3,0.4,0.5,0.6,0.8
			c0.4,0.5,0.8,0.8,1.1,1.1c1.4,1.1,2.5,1.6,3.5,2.1c1,0.5,2,0.9,2.9,1.2c3.7,1.3,7.1,2.1,10.6,2.8c3.4,0.7,6.9,1.4,10.3,1.9
			c6.8,1.1,13.6,2.1,20.4,2.8c4.2,0.5,8.3,1.1,12.4,1.6c-1.1,6.9-2.6,13.6-4.1,20.5c-2.1,9.8-4.3,19.5-6.5,29.2
			c-4.4,19.5-9,38.9-13.1,58.4l-12.6,58.5c-4.2,19.5-8.5,39-12.9,58.4L34.3,494.9l-13.6,58.3L6.8,611.3h16.5l11.5-55l12.4-58.5
			l25.2-117c4.3-19.5,8.6-38.9,13.1-58.4l13.5-58.3c4.5-19.4,8.6-39,12.9-58.4c2.1-9.7,4.3-19.5,6.5-29.2c2.2-9.7,4.4-19.5,7.8-29
			l2.6-7l-9.4-2.1h0c-6.6-1-13.3-0.4-20-0.8c-6.7-0.4-13.3-0.8-19.9-1.5c-3.3-0.4-6.5-0.8-9.7-1.3c-3.2-0.5-6.4-1.1-9.1-1.9
			c-0.7-0.2-1.3-0.4-1.8-0.6c-0.1,0-0.3-0.1-0.4-0.2c0-0.1,0-0.2,0-0.3c-0.1-2.1,0.6-5.1,1.6-7.6c0.5-1.3,1.1-2.5,1.8-3.6
			c0.6-1,1.5-1.9,1.6-2c1.4-0.7,5-1.6,8.1-2.2c6.4-1.3,13-2.3,19.7-3.2c13.3-1.8,26.8-3.2,40.1-4.4l2.6-0.2l0.9-2.4v0l2.6-4.5
			c0.8-1.5,1.5-3,2.4-4.4c0.8-1.4,1.8-2.8,2.6-3.7c0.3-0.3,1.7-1.5,2.8-2.3c1.2-0.9,2.5-1.8,3.8-2.6c1.3-0.8,2.7-1.6,4.1-2.4
			c1.4-0.8,2.8-1.5,4.3-2.2c1.5-0.7,2.9-1.4,4.4-2c2.9-1.3,5.9-2.4,8.8-3.4c2.9-1,5.9-1.8,8.8-2.1c1.4-0.1,2.8-0.1,4.1,0.1l0.5,0.1
			l0.2,0l0-0.1c0,0,0,0,0,0l0,0.1l1.3,0.4l2.1,0.7c3.2,1.2,6.5,2.5,9.9,3.7l2.4,0.7l0.9-0.9v0c2-1.2,5-2.5,7.5-3.9
			c2.5-1.4,4.8-2.9,7.1-4.5c4.7-3.1,9.1-6.5,13.5-9.8c4.5-3.2,9-6.5,13.5-9.2c2.2-1.3,4.5-2.8,6.5-3.6c0.3-0.1,0.5-0.2,0.8-0.3
			c0.1,0.1,0.2,0.1,0.3,0.2c1.3,0.9,2.9,2.6,4,4.3c0.6,0.8,1.1,1.7,1.3,2.4c0,0,0,0,0,0.1c-0.3,0.5-0.6,0.8-0.9,1.3l-2.4,3.2
			l-5.1,6.6L236.3,81c-3.5,4.4-7.3,8.6-10.2,13.5l-4.4,7.2l6.4,1.4c6.9,3,14,7,20.6,11.3c6.6,4.3,12.9,9.2,18.7,14.5
			c1.5,1.4,2.8,2.6,4.3,4.1c1.3,1.3,2.7,2.8,4,4.3c2.6,3,4.9,6.2,7.2,9.4c4.6,6.6,9.2,13.1,14.8,19.4c1.4,1.6,2.8,3.2,4.5,4.9
			c0.8,0.8,1.7,1.7,2.8,2.6c0.3,0.2,0.6,0.5,0.9,0.7c0.3,0.2,0.8,0.5,1,0.6l1.3,0.8c3.6,2.2,7.2,4.2,10.8,6.2
			c7.2,4,14.4,7.6,20.5,12c6.1,4.3,10.8,9.5,12.7,15.9c0.5,1.6,0.8,3.3,1.1,5c0.1,0.8,0.2,1.8,0.2,2.5l0.1,3.1
			c0,3.6-0.2,7.3-0.8,10.9c-1.3,7.2-4.3,13.8-9,19.1c-4.7,5.4-11,9.4-17.9,12.3c-6.9,2.9-14.4,4.7-22.3,6.1
			c-7.5,1.3-15.4,2-23.3,2.1c-7.9,0.1-15.8-0.2-23.7-1c-7.9-0.8-15.8-2-23.7-3.5c-4-0.7-7.8-1.6-11.9-2.4l-6-1.2l-6.1-1.1
			c-8.2-1.4-16.2-2.6-24.6-3.2l-0.7,6.5c7.8,1.4,15.8,3.1,23.6,5l5.8,1.4l5.9,1.6c3.8,1,7.9,2.2,11.9,3.1c8.1,1.9,16.2,3.4,24.5,4.5
			c8,1,16.1,1.7,24.2,1.8c-0.6,1.1-1.2,2.3-1.8,3.6c-0.6,1.4-1.2,2.9-1.8,4.5c-0.5,1.6-1,3.2-1.5,4.9c-0.4,1.7-0.8,3.4-1.1,5.1
			c-0.3,1.8-0.5,3.6-0.8,5.3c-0.1,1.6-0.3,3.1-0.4,4.7c-0.1,1.6-0.2,3.1-0.3,4.5c-0.1,1.4-0.2,2.7-0.3,3.9c-0.1,1.5-0.2,2.9-0.4,4.1
			l-30.3-1.2l-4.3-0.2l-0.9,4.1c-3.2,15.1-6.6,30.1-10,45.1c-3.3,15-6.8,30-10.3,45l-22.5,96.7l7,0.4c19.3,1,38.6,2,57.9,2.9
			l57.9,2.8l57.9,2.5c19.3,0.9,38.6,1.6,57.9,2.3l7.2,0.3L437.6,516.4z M58.5,132.6C58.5,132.6,58.5,132.5,58.5,132.6
			C58.5,132.6,58.5,132.6,58.5,132.6z M184.3,76.3L184.3,76.3L184.3,76.3C184.4,76.3,184.4,76.3,184.3,76.3z M249.7,49.7
			c0,0-0.1,0-0.1,0C249.6,49.6,249.6,49.6,249.7,49.7L249.7,49.7L249.7,49.7l0.4,0C250,49.7,249.8,49.7,249.7,49.7z M256.1,55.3
			L256.1,55.3C256.1,55.2,256,55.4,256.1,55.3z M282,319.2c0-1.2,0-2.5,0-3.9c0-0.7,0-1.4,0-2.1c0-0.7,0-1.4,0.1-2
			c0.1-1.5,0.2-3.1,0.3-4.7c0.2-1.4,0.4-2.8,0.6-4.2c0.3-1.4,0.7-2.9,1-4.3c0.5-1.4,0.9-2.7,1.3-4c0.6-1.2,1.1-2.4,1.6-3.6
			c0.6-1.1,1.2-2.1,1.7-3c0.6-0.9,1.2-1.7,1.7-2.4c0.5-0.7,1-1.2,1.4-1.7c0.8-0.9,1.3-1.4,1.3-1.4l-0.1-0.1
			c4.1-0.3,8.3-0.8,12.5-1.5c8.1-1.4,16.6-3.5,24.7-6.9c1.7-0.7,3.4-1.6,5.1-2.5c1,0.2,2,0.6,3.3,0.9c1.3,0.5,2.8,1,4.4,1.8
			c0.8,0.4,1.6,0.8,2.4,1.3c0.8,0.5,1.6,1,2.4,1.6c1.6,1.2,3.2,2.5,4.8,4c1.5,1.5,3,3.3,4.2,5.2c0.7,0.9,1.2,1.9,1.8,2.9
			c0.6,1,1.1,2.1,1.5,3.1l0.7,1.6l0.6,1.7c0.4,1.1,0.8,2.2,1,3.4c0.6,2.3,0.9,4.6,1.2,6.8c0.1,2.3,0.4,4.4,0.3,6.6
			c0,1-0.1,2.1-0.1,3.1c-0.1,1.1-0.1,2.1-0.2,3.1c-0.2,3.6-0.5,6.7-0.7,8.9l-38.8-1.7l-42.2-1.7C282,322,282,320.7,282,319.2z
			 M316.1,505.7l-57.9-2.4c-17-0.7-34-1.4-51-2l18-83.5c3.2-15.1,6.5-30.1,9.9-45.1c3.1-13.6,6.1-27.3,9.3-40.9l79.2,3.9l41.7,1.8
			l37.4,1.6c2.1,13.8,4,27.5,5.9,41.3c1.1,7.6,2,15.3,3,22.9l2.9,22.9l10.2,84.6c-16.9-0.9-33.9-1.7-50.8-2.5L316.1,505.7z"/>
	</g>
</g>
</svg>
