<?xml version="1.0" encoding="utf-8"?>
<!-- Generator: Adobe Illustrator 18.1.0, SVG Export Plug-In . SVG Version: 6.00 Build 0)  -->
<svg version="1.1" id="Layer_1" xmlns="http://www.w3.org/2000/svg" xmlns:xlink="http://www.w3.org/1999/xlink" x="0px" y="0px"
	 viewBox="0 0 300 300" enable-background="new 0 0 300 300" xml:space="preserve">
<g id="settings_2_">
	<path fill="#FFFFFF" d="M221.3,161.3c0-3,0.8-6.8,0.8-11.3s0-7.5-0.8-11.3l23.3-18.8c2.3-2.3,2.3-4.5,1.5-6.8l-22.5-39
		c-0.8-1.5-3-2.3-6.8-1.5L189,84c-5.3-4.5-12-7.5-18.8-11.3l-4.5-29.3c0.8-3-2.2-5.2-4.5-5.2h-45c-2.3,0-5.3,2.3-5.3,4.5l-4.5,30
		c-6.8,2.3-12,6.7-18.8,11.3L60,72.8c-3-0.8-5.3,0-7.5,2.3L30,114c-0.8,0.8,0,4.5,2.3,6.8l23.2,18c0,3-0.8,6.8-0.8,11.3
		s0,7.5,0.8,11.3L32.2,180c-2.2,3-2.2,5.3-1.5,7.5l22.5,39c0.8,0.8,3,2.3,6.8,0.8L87.8,216c5.3,4.5,12,7.5,18.8,11.3l4.5,29.2
		c0,2.3,2.3,4.5,5.3,4.5h45c2.3,0,5.3-2.3,5.3-4.5l4.5-29.2c6.7-3,13.5-6.8,18.8-11.3l27.8,11.3c2.3,1.5,5.3,0,6.8-2.3l22.5-39
		c0.8-2.3,0.8-5.3-1.5-6.8L221.3,161.3z M138.8,189.8c-21,0-39-18-39-39c0-21,18-39,39-39s39,18,39,39
		C177.8,171.8,159.8,189.8,138.8,189.8z"/>
</g>
<polygon fill="#FFFFFF" points="284.3,262.5 255,300 225.8,262.5 "/>
</svg>
