<?xml version="1.0" encoding="utf-8"?>
<!-- Generator: Adobe Illustrator 18.1.0, SVG Export Plug-In . SVG Version: 6.00 Build 0)  -->
<svg version="1.1" id="Layer_1" xmlns="http://www.w3.org/2000/svg" xmlns:xlink="http://www.w3.org/1999/xlink" x="0px" y="0px"
	 viewBox="0 0 36 40" enable-background="new 0 0 36 40" xml:space="preserve">
<g id="shopping-cart_2_" opacity="0.7">
	<path fill="#EF9421" d="M11.6,29.6c-1.6,0-3,1.3-3,3s1.3,3,3,3c1.6,0,3-1.3,3-3S13.3,29.6,11.6,29.6z M2.7,5.8v3h3L11,20.1
		l-2.1,3.6c-0.1,0.4-0.3,1-0.3,1.5c0,1.6,1.3,3,3,3h17.9v-3H12.2c-0.2,0-0.3-0.1-0.3-0.3v-0.1l1.3-2.5h11c1.2,0,2.1-0.6,2.5-1.5
		l5.4-9.7c0.3-0.3,0.3-0.4,0.3-0.7c0-0.9-0.6-1.5-1.5-1.5h-22l-1.3-3H2.7z M26.5,29.6c-1.6,0-3,1.3-3,3s1.3,3,3,3c1.6,0,3-1.3,3-3
		S28.1,29.6,26.5,29.6z"/>
</g>
</svg>
