<?xml version="1.0" encoding="utf-8"?>
<!-- Generator: Adobe Illustrator 18.1.0, SVG Export Plug-In . SVG Version: 6.00 Build 0)  -->
<svg version="1.1" id="Layer_1" xmlns="http://www.w3.org/2000/svg" xmlns:xlink="http://www.w3.org/1999/xlink" x="0px" y="0px"
	 viewBox="0 0 348.2 73.5" enable-background="new 0 0 348.2 73.5" xml:space="preserve">
<g>
	<path fill="#EF9421" d="M22.2,48.8c-1.7,3.3-5,6.2-10.6,6.2c-6,0-11.1-3.5-11.1-14.5c0-5.8,1.4-11.2,4.6-15.6
		c4-5.5,10-7.6,16.7-7.6c5.8,0,9.7,1.7,13.2,4.3L31.3,56c-1.2,10.6-5.5,17.5-18.5,17.5c-3.7,0-8.1-0.6-11.5-2
		c-1.7-2.8-1.5-7.7-0.5-10.4c3.8,2.3,8.1,3.3,11.5,3.3c6.1,0,8.2-3.1,8.8-8.3c0.2-2,0.9-5.3,1.7-7.3H22.2z M24.8,26.5
		c-0.9-0.6-2.4-0.9-3.9-0.9c-3.2,0-5.8,1.4-7.4,3.3c-2,2.4-2.7,7-2.7,10c0,4.9,1.9,6.8,5.6,6.8c2.9,0,4.9-1.3,6.5-3.2L24.8,26.5z"/>
	<path fill="#EF9421" d="M50,43.3c-0.4,3.1,0.6,3.7,2.2,3.7c1.2,0,1.9-0.3,2.7-0.7c0.5,2.7-0.5,6.8-1.9,8.4
		c-1.5,0.9-3.1,1.4-5.6,1.4c-5.7,0-8-2.7-8-8c0-1.2,0.2-3.1,0.4-4.3L43,19.2c1.1-0.5,2.5-0.8,4.8-0.8c2.3,0,3.9,0.3,4.7,0.8L50,43.3
		z M54.9,6.5c0,3.8-2.5,6.2-6.1,6.2c-3.3,0-5.4-2-5.4-5.7c0-3.8,2.4-6.2,6.1-6.2C52.8,0.8,54.9,2.7,54.9,6.5z"/>
	<path fill="#EF9421" d="M70.4,25.9H71c1.2-5.8,4.5-8.6,9-8.6c1.3,0,2.4,0.2,3.2,0.7c0.6,1.1,0.9,2.6,0.9,5.1c0,2.5-0.4,4-0.9,5.4
		c-1.1-0.7-2.4-1.2-4.1-1.2c-4.3,0-7.1,3.2-8.7,8.6l-1.9,18.2c-1,0.5-2.6,0.9-5.2,0.9c-2.6,0-4.1-0.4-5-0.9l4.4-34.5
		c1.8-0.9,4.4-1.4,7.9-1.4V25.9z"/>
	<path fill="#EF9421" d="M116.3,43.3c-0.4,3,0.6,3.7,2.2,3.7c1.2,0,1.9-0.3,2.7-0.7c0.5,2.7-0.5,6.8-1.9,8.4c-1.5,0.9-3,1.4-5.5,1.4
		c-4.3,0-6.9-1.9-7.2-6.3H106c-1.4,3.2-4.8,6.3-10.3,6.3c-6,0-11.2-3.5-11.2-14.9c0-5.8,1.4-11.8,4.7-16.2
		c3.9-5.4,10.1-7.7,16.7-7.7c5.5,0,9.6,1.6,12.8,4L116.3,43.3z M108.4,26.4c-1-0.6-1.9-0.8-3.5-0.8c-3.5,0-5.9,1.3-7.4,3.3
		c-2.1,2.7-2.8,7.2-2.8,10.5c0,5.4,1.7,7.4,5.2,7.4c3,0,4.8-1.4,6.3-3.3L108.4,26.4z"/>
	<path fill="#EF9421" d="M172.6,18.7l1.1-8.1c2.4-1.6,5.6-2.5,9.6-2.5l-1.2,10.6h8.4c0.2,0.5,0.5,1.6,0.5,3.3c0,2.2-0.4,4-1,5.3
		h-8.9l-1.5,13.9c-0.4,3.7,0.4,5.4,3.9,5.4c1.9,0,3.9-0.5,5.8-1.8c0.6,3-0.4,7.1-2,9.1c-2.1,1.4-4.5,2.2-8.1,2.2
		c-7.3,0-10.1-3.4-10.1-9.2c0-1.5,0.2-3.6,0.4-5.1l1.9-14.4h-11.3l-4,37.9c-1,0.5-2.6,0.9-5.2,0.9c-2.6,0-4.2-0.4-5.1-0.9l4.6-37.9
		h-11.8l-2.8,26.7c-1,0.5-2.6,0.9-5.2,0.9c-2.6,0-4.1-0.4-5.1-0.9l3.3-26.7h-5c0.1-2.8,0.8-6.3,1.8-8.6h4.3l0.5-4.1
		c1.3-10.7,6.3-14.3,13-14.3c2.2,0,4.2,0.3,5.8,1.3c1.5,2.2,1.7,6.4,1.1,9c-1.6-1.2-3-1.6-4.8-1.6c-3.5,0-4.9,1.6-5.4,5.5l-0.5,4.2
		h11.9l0.5-4.5C153.2,3.5,158.1,0,164.7,0c2.2,0,4.1,0.3,5.7,1.2c1.5,2.2,1.7,6.4,1.1,9c-1.5-1.1-3-1.4-4.7-1.4
		c-3.5,0-4.8,1.6-5.3,5.5l-0.5,4.5H172.6z"/>
	<path fill="#7D756E" d="M208.8,48c3.7,0,5.1-1.2,5.1-3.3c0-5.7-16.4-2.9-16.4-15.7c0-7.4,4.7-11.7,13.4-11.7
		c3.6,0,7.4,0.7,10.2,2.5c1.3,2.1,2.1,6.1,1.7,8.9c-3.2-2-7.3-3.3-10.8-3.3c-3.1,0-4,1-4,2.7c0,5.3,16.5,2.7,16.5,15.4
		c0,9.2-6.4,12.6-15.4,12.6c-3.7,0-7.9-0.6-11-2c-1.5-2.4-2.1-6.8-1.6-9.3C199.6,46.7,204.8,48,208.8,48z"/>
	<path fill="#7D756E" d="M241.2,54.1c-0.9,0.5-2.7,0.9-5.2,0.9c-2.5,0-4.3-0.4-5.3-0.9V3c2.5-1.4,5.8-2.1,10.5-2.1v11
		c0,4.1-0.4,8.5-0.9,11.8h0.6c1.6-3.6,5-6.3,11.7-6.3c5.6,0,12.2,1.9,12.2,13.8v22.9c-0.9,0.5-2.7,0.9-5.2,0.9
		c-2.5,0-4.3-0.4-5.3-0.9V33c0-3.8-1.4-6.3-5.7-6.3c-3.9,0-6,1.9-7.4,4.3V54.1z"/>
	<path fill="#7D756E" d="M306.8,36.1c0,13-6.8,20-18,20c-11.6,0-18-6.6-18-20c0-11.8,7.3-18.8,18-18.8
		C299.7,17.3,306.8,23.9,306.8,36.1z M288.8,47.5c5,0,7.2-4.2,7.2-11.3c0-6.3-2.6-10.3-7.2-10.3c-4.8,0-7.2,4-7.2,10.3
		C281.6,43.3,284,47.5,288.8,47.5z"/>
	<path fill="#7D756E" d="M322.9,23.9c1.9-4.7,6.3-6.6,11.2-6.6c9.4,0,14.1,7.4,14.1,18.1c0,13.1-6.8,20.7-17.7,20.7
		c-2.6,0-5.1-0.4-6.8-1.3v16.7c-0.9,0.5-2.7,0.9-5.2,0.9c-2.5,0-4.3-0.4-5.3-0.9V19.7c2.1-1.1,5.3-1.7,8.5-1.7l0.6,5.8H322.9z
		 M323.5,46c1.2,0.5,3,0.9,4.8,0.9c6.5,0,9.2-4.3,9.2-10.7c0-6.6-2.7-9.5-7.4-9.5c-3.2,0-5.3,1.5-6.6,3.2V46z"/>
</g>
</svg>
