<?xml version="1.0" encoding="utf-8"?>
<!-- Generator: Adobe Illustrator 18.1.0, SVG Export Plug-In . SVG Version: 6.00 Build 0)  -->
<svg version="1.1" id="Layer_1" xmlns="http://www.w3.org/2000/svg" xmlns:xlink="http://www.w3.org/1999/xlink" x="0px" y="0px"
	 viewBox="-0.5 100.2 328 92" enable-background="new -0.5 100.2 328 92" xml:space="preserve">
<path fill="#EF941B" d="M85.3,190.3l-6-32.1l-1.5-8c-0.5-2.7-1-5.3-1.4-8c-0.9-5.4-1.9-10.7-2.7-16.1l-0.2-1.1h-1.2l-10.7,0
	c0-0.5-0.1-1.1-0.1-2c-0.1-0.9-0.1-1.9-0.1-3.2c0-0.7-0.1-1.4-0.1-2.2c-0.1-0.8-0.2-1.6-0.4-2.4c-0.3-1.7-0.9-3.5-1.8-5.3
	c-0.9-1.8-2.2-3.6-3.9-5.1c-1.7-1.5-3.7-2.7-5.8-3.5c-1.1-0.4-2.2-0.7-3.4-0.9c-0.6-0.1-1.2-0.2-1.8-0.2l-1.6-0.1
	c-2.3,0-4.6,0.4-6.8,1.1c-2.2,0.8-4.2,2-5.8,3.5c-1.7,1.5-2.9,3.3-3.9,5.1c-0.9,1.8-1.5,3.6-1.8,5.3c-0.2,0.8-0.3,1.7-0.4,2.5
	c-0.1,0.8-0.1,1.4-0.1,2c0,0.7,0,1.3,0,1.8c0,0.5,0,1-0.1,1.5c-0.1,0.8-0.1,1.4-0.2,1.9l-10.4,0l-1.1,0l-0.2,1.1L9.2,142l-2.9,16.1
	L0,192.2h85.7L85.3,190.3z M28.9,123c0-0.4,0-0.9-0.1-1.5c0-0.3,0-0.5,0-0.8c0-0.1,0-0.3,0-0.4v-0.1v0c0-0.1,0,0.1,0,0.1l0,0l0-0.1
	l0-0.2c0-0.6,0-1.3,0.1-1.9c0.1-0.6,0.1-1.2,0.3-1.8c0.2-1.3,0.7-2.7,1.3-4.1c0.7-1.3,1.6-2.6,2.8-3.7c1.2-1.1,2.6-2,4.2-2.5
	c1.6-0.6,3.4-0.9,5.2-0.9L44,105c0.5,0,0.8,0.1,1.2,0.2c0.8,0.2,1.7,0.4,2.5,0.7c1.6,0.6,3,1.5,4.2,2.5c1.2,1.1,2.1,2.4,2.8,3.7
	c0.6,1.4,1.1,2.7,1.3,4.1c0.2,0.7,0.2,1.3,0.3,1.9c0.1,0.6,0.1,1.2,0.1,1.8c0,1.2-0.1,2.3-0.1,3.2c0,0.8-0.1,1.5-0.1,1.9l-13.4,0
	l-13.8,0C29,124.4,28.9,123.8,28.9,123z M73.3,170.5c-0.2,1.7-0.9,3.4-2,4.8c-1,1.2-2.3,2.3-4,3.1c-1.2,0.6-2.6,1.1-4.4,1.5
	c-1.5,0.3-3,0.5-4.5,0.6c-2.8,0.1-5.7-0.2-8.8-0.8c-0.6-0.1-1.3-0.3-1.9-0.4l-2.3-0.5c-1.3-0.3-2.6-0.5-4.1-0.8l-0.4-0.1l0.2-2.4
	l0.4,0c1.5,0,2.9,0.2,4.4,0.3l2.2,0.3c0.7,0.1,1.4,0.2,2.1,0.3c2.9,0.4,5.6,0.5,8.1,0.3c1.4-0.1,2.7-0.3,3.9-0.5
	c1.5-0.3,2.6-0.7,3.7-1.2c1.2-0.5,2.1-1.2,2.7-2c0.7-0.8,1.1-1.8,1.3-3c0.1-0.5,0.1-1.1,0.1-1.7l0-0.5c0-0.1,0-0.2,0-0.3
	c-0.1-0.3-0.1-0.5-0.2-0.8c-0.3-0.8-0.9-1.6-2-2.2c-0.8-0.5-1.8-1-2.8-1.5l-0.7-0.4c-0.6-0.3-1.3-0.6-2-1c-0.3-0.2-1.1-0.7-1.3-0.9
	c-0.3-0.3-0.6-0.6-0.9-0.8c-0.9-1-1.8-2-2.7-3.3c-0.4-0.6-0.8-1.1-1.2-1.6c-0.2-0.2-0.5-0.5-0.7-0.7l-0.1-0.1
	c-0.1-0.1-0.2-0.2-0.3-0.3l-0.4-0.3c-1-0.8-2-1.6-3.3-2.3c-0.6-0.3-1.2-0.7-1.8-1c-0.6-0.3-1.2-0.6-1.7-0.6l-2.1-0.3l0.2-0.5
	c0-0.1,0.8-1.9,1.8-3.1c0.1-0.1,0.5-0.6,1.2-1.3c0.5-0.6,1.2-1.3,1.6-1.7l0.2-0.2c0.8-0.9,1.2-1.4,1.3-1.6c0-0.1-0.1-0.7-0.4-0.9
	c-0.2-0.1-0.7-0.2-1-0.2c-0.1,0-0.1,0-0.1,0c-0.4,0.3-1.1,0.8-1.7,1.3c-0.3,0.3-0.7,0.5-0.9,0.7c-0.3,0.2-1.4,1.2-2.2,2l-0.6,0.6
	c-0.3,0.3-1.3,1.3-1.3,1.3l-0.2,0.2l-0.3-0.1c-0.6-0.2-1.6-0.6-1.8-0.6c-0.1,0-1-0.1-1.7-0.1c-0.2,0-0.3,0-0.4,0
	c-0.3,0.1-0.7,0.2-1.1,0.4l-0.2,0.1c-0.1,0.1-0.2,0.1-0.4,0.2c-0.1,0.1-0.2,0.1-0.3,0.2l-0.7,0.3c-1,0.5-1.9,1-2.6,1.6
	c-0.1,0.1-0.8,0.8-1.2,1.5c-0.3,0.5-0.6,1.3-0.6,1.3l-0.1,0.2l-0.9,0.1c-2.6,0.4-4.8,0.7-6.9,1.1c-1,0.2-2.2,0.4-3.3,0.7
	c-0.3,0.1-0.5,0.1-0.7,0.2c-0.1,0-0.3,0.2-0.4,0.2c-0.1,0.1-0.1,0.3-0.2,0.5c-0.1,0.2-0.1,0.3-0.1,0.5c0.4,0.1,0.9,0.1,1.2,0.2
	c0.5,0.1,1.1,0.1,1.7,0.1c1.1,0.1,9.3,0.6,9.3,0.6l0.5,0l-0.1,0.5c0,0.1-2,7.3-2.3,9.2c-0.3,1.9-1.3,7.7-1.3,7.8
	c-0.3,1.7-2.8,15-2.8,15.1l-0.7,4.1H21l1-4.7c0-0.1,2.6-13.5,3-15.2l1.2-7.8l0.8-5.1l-1.4-0.1c-1.3-0.1-2.6-0.2-3.6-0.4
	c-0.6-0.1-1.2-0.2-1.8-0.3c-0.7-0.1-1.3-0.2-2-0.4c-0.2-0.1-1-0.4-1.4-0.7c0,0-0.1-0.1-0.6-0.6l-0.1-0.1c-0.2-0.5-0.2-0.6-0.3-0.6
	c-0.1-0.3-0.1-0.6-0.1-0.9c0-0.5,0.1-1,0.1-1.3c0.1-0.4,0.2-0.7,0.3-1.1c0.2-0.4,0.3-0.8,0.5-1.1c0.3-0.4,0.5-0.8,1.2-1.2
	c0,0,0.4-0.2,0.4-0.2c0.2-0.1,1.5-0.4,1.8-0.5c1.2-0.2,2.3-0.4,3.6-0.6c1.4-0.2,2.8-0.3,3.9-0.5c-0.2-0.6-0.5-1.1-0.8-1.7
	c-0.4-0.7-0.8-1.3-1.2-1.9c-0.2-0.3-0.4-0.6-0.7-0.9c-0.2-0.3-0.5-0.6-0.7-0.9c-0.3-0.3-0.6-0.6-0.9-1c-0.1,0-0.2,0-0.3,0
	c-1.5,0-2.8-1.3-2.8-2.8c0-1.5,1.3-2.8,2.8-2.8c1.5,0,2.8,1.3,2.8,2.8c0,0.4-0.1,0.7-0.2,1.1c0.2,0.4,0.5,0.7,0.7,1.1
	c0.2,0.3,0.4,0.6,0.7,0.9c0.2,0.3,0.5,0.6,0.7,0.9c0.4,0.5,1,1.2,1.5,1.7c0.4,0.4,0.8,0.7,1.1,1c0.1-0.2,0.3-0.5,0.3-0.5
	c0.1-0.2,0.3-0.4,0.4-0.5c0.5-0.5,1-1,1.7-1.5c0.6-0.4,1.2-0.8,1.9-1.1c1.5-0.7,2.9-0.9,4.5-0.7c0.5,0.1,0.9,0.2,1.3,0.3l0,0
	c0.2-0.4,0.3-0.9,0.4-1.3c0.2-0.6,0.3-1.3,0.4-1.9c0.1-1.1,0.2-2.2,0.1-3.2c-0.7-0.5-1.1-1.3-1.1-2.2c0-1.5,1.3-2.8,2.8-2.8
	c1.6,0,2.8,1.3,2.8,2.8c0,1.1-0.6,2.1-1.6,2.5c-0.2,1-0.4,2.1-0.4,3.1c0,0.5,0,1.1,0,1.6c0.2-0.2,0.4-0.4,0.5-0.5
	c0.4-0.4,2.7-2.2,3.6-2.8l0.1-0.1c0.3-0.3,1.2-1,2.2-1.1c0.7-0.1,1.7,0.1,2.5,0.5c0.8,0.4,1.6,1.1,1.8,1.5c0.3,0.4,0.4,0.7,0.6,1
	c0.1,0.3,0.2,0.5,0.2,0.8c0.1,0.4,0.1,0.8,0,1.3c0,0.1,0,0.1-1.6,2.3c-0.9,1.2-2,2.8-2.2,3.1c-0.1,0.1-0.2,0.4-0.3,0.7
	c0.6,0.3,1.1,0.6,1.6,0.9c1.4,0.9,2.6,1.7,3.7,2.6l3.4,3c1.1,1,2.1,2.2,2.9,3.2c0.2,0.2,0.7,0.8,0.8,0.9c0.1,0.1,4.5,2.4,5.9,3.3
	c0.8,0.6,1.4,1.1,2,1.7c0.6,0.7,1.1,1.5,1.4,2.4c0.1,0.4,0.3,0.9,0.3,1.3l0,0.1c0,0.2,0.1,0.4,0.1,0.6l0,0.5
	C73.4,168.9,73.4,169.7,73.3,170.5z M43.4,157.6c-0.1-0.6-0.1-1.1-0.1-1.1l0-0.4l2.9-0.4l0.1,0.4c0,0,0.1,0.4,0.2,1.1
	c0.1,0.6,0.2,1.5,0.3,2.3c0,0.3,0.1,0.6,0.1,0.8l0,0.4c0,0.3,0.1,0.6,0.1,0.9l0,0.2c0.1,0.7,0.1,1.1,0.1,1.1l0,0.4l-2.9,0.4
	l-0.1-0.4c0,0-0.1-0.4-0.2-1.1l0-0.2c0-0.3-0.1-0.6-0.1-0.9l-0.1-0.4c0-0.3-0.1-0.5-0.1-0.8C43.6,159.1,43.5,158.3,43.4,157.6z
	 M49.7,155.2l2.6-1l0.2,0.3c0,0,0.2,0.4,0.5,1l0.1,0.3c0.1,0.2,0.2,0.4,0.3,0.7l0.5,1.2c0.4,0.9,0.7,1.8,0.8,2.2
	c0.2,0.6,0.3,1,0.3,1l0.1,0.4l-2.8,1l-0.2-0.3c0,0-0.2-0.4-0.4-1c-0.2-0.4-0.5-1.3-0.9-2.2l-0.4-1.2c-0.1-0.3-0.2-0.5-0.2-0.7
	L49.7,155.2z M58.5,173.9l-1.1-4.7l3.7-0.5l0.1,4.8L58.5,173.9z M66.7,172l-2.3,0.8l-2.2-4.3l3.5-1.2L66.7,172z"/>
<g>
	<path fill="#EF941B" d="M113.2,164.8c-1.1,2.2-3.3,4.1-7,4.1c-3.9,0-7.3-2.3-7.3-9.5c0-3.8,0.9-7.3,3-10.2c2.6-3.6,6.6-5,11-5
		c3.8,0,6.4,1.1,8.7,2.8l-2.5,22.6c-0.8,7-3.6,11.5-12.1,11.5c-2.5,0-5.3-0.4-7.6-1.3c-1.1-1.8-1-5.1-0.3-6.8
		c2.5,1.5,5.3,2.2,7.6,2.2c4,0,5.4-2,5.8-5.4c0.1-1.3,0.6-3.5,1.1-4.8H113.2z M114.9,150.2c-0.6-0.4-1.6-0.6-2.6-0.6
		c-2.1,0-3.8,0.9-4.9,2.2c-1.3,1.6-1.8,4.6-1.8,6.6c0,3.2,1.3,4.5,3.6,4.5c1.9,0,3.2-0.9,4.3-2.1L114.9,150.2z"/>
	<path fill="#EF941B" d="M131.4,161.2c-0.2,2,0.4,2.4,1.4,2.4c0.8,0,1.3-0.2,1.8-0.5c0.3,1.8-0.3,4.4-1.3,5.5c-1,0.6-2,0.9-3.6,0.9
		c-3.7,0-5.3-1.8-5.3-5.3c0-0.8,0.1-2,0.2-2.8l2.1-16.1c0.7-0.3,1.7-0.5,3.2-0.5c1.5,0,2.6,0.2,3.1,0.5L131.4,161.2z M134.7,137
		c0,2.5-1.6,4.1-4,4.1c-2.2,0-3.5-1.3-3.5-3.7c0-2.5,1.6-4.1,4-4.1C133.3,133.3,134.7,134.6,134.7,137z"/>
	<path fill="#EF941B" d="M144.9,149.8h0.3c0.8-3.8,3-5.6,5.9-5.6c0.9,0,1.6,0.1,2.1,0.4c0.4,0.7,0.6,1.7,0.6,3.4
		c0,1.7-0.2,2.6-0.6,3.5c-0.7-0.4-1.6-0.8-2.7-0.8c-2.8,0-4.6,2.1-5.7,5.6l-1.3,11.9c-0.7,0.3-1.7,0.6-3.4,0.6
		c-1.7,0-2.7-0.2-3.3-0.6l2.9-22.7c1.2-0.6,2.9-0.9,5.2-0.9V149.8z"/>
	<path fill="#EF941B" d="M174.9,161.2c-0.2,2,0.4,2.4,1.4,2.4c0.8,0,1.3-0.2,1.8-0.5c0.3,1.8-0.3,4.4-1.3,5.5c-1,0.6-2,0.9-3.6,0.9
		c-2.8,0-4.5-1.2-4.7-4.1h-0.3c-0.9,2.1-3.1,4.1-6.8,4.1c-3.9,0-7.4-2.3-7.4-9.7c0-3.8,0.9-7.7,3.1-10.6c2.6-3.6,6.6-5.1,10.9-5.1
		c3.6,0,6.3,1,8.4,2.7L174.9,161.2z M169.8,150.1c-0.7-0.4-1.2-0.5-2.3-0.5c-2.3,0-3.9,0.9-4.9,2.2c-1.4,1.8-1.8,4.7-1.8,6.9
		c0,3.5,1.1,4.9,3.4,4.9c1.9,0,3.2-0.9,4.2-2.2L169.8,150.1z"/>
	<path fill="#EF941B" d="M211.9,145.1l0.7-5.3c1.6-1,3.7-1.6,6.3-1.6l-0.8,7h5.5c0.1,0.3,0.3,1,0.3,2.2c0,1.5-0.2,2.7-0.7,3.5h-5.8
		l-1,9.1c-0.3,2.4,0.2,3.5,2.6,3.5c1.3,0,2.6-0.3,3.8-1.2c0.4,1.9-0.3,4.6-1.3,6c-1.4,0.9-3,1.4-5.3,1.4c-4.8,0-6.6-2.2-6.6-6.1
		c0-1,0.1-2.4,0.3-3.4l1.3-9.5h-7.4l-2.7,24.9c-0.7,0.3-1.7,0.6-3.4,0.6c-1.7,0-2.7-0.2-3.4-0.6l3-24.9h-7.7l-1.8,17.6
		c-0.7,0.3-1.7,0.6-3.4,0.6c-1.7,0-2.7-0.2-3.3-0.6l2.2-17.6H180c0-1.8,0.5-4.2,1.2-5.6h2.8l0.3-2.7c0.9-7.1,4.1-9.4,8.5-9.4
		c1.4,0,2.7,0.2,3.8,0.9c1,1.4,1.1,4.2,0.7,5.9c-1-0.8-2-1-3.2-1c-2.3,0-3.2,1-3.5,3.6l-0.3,2.7h7.8l0.3-2.9
		c0.9-7.1,4.1-9.4,8.4-9.4c1.4,0,2.7,0.2,3.7,0.8c1,1.4,1.1,4.2,0.7,5.9c-1-0.7-1.9-0.9-3.1-0.9c-2.3,0-3.1,1-3.5,3.6l-0.3,3H211.9z
		"/>
	<path fill="#7C746D" d="M235.7,164.3c2.4,0,3.4-0.8,3.4-2.2c0-3.7-10.8-1.9-10.8-10.3c0-4.8,3.1-7.7,8.8-7.7c2.4,0,4.9,0.5,6.7,1.6
		c0.9,1.4,1.4,4,1.1,5.8c-2.1-1.3-4.8-2.2-7.1-2.2c-2,0-2.6,0.7-2.6,1.8c0,3.5,10.8,1.8,10.8,10.1c0,6.1-4.2,8.3-10.1,8.3
		c-2.5,0-5.2-0.4-7.2-1.3c-1-1.6-1.4-4.5-1-6.1C229.6,163.4,233.1,164.3,235.7,164.3z"/>
	<path fill="#7C746D" d="M257,168.3c-0.6,0.3-1.8,0.6-3.4,0.6c-1.7,0-2.8-0.2-3.5-0.6v-33.6c1.6-0.9,3.8-1.4,6.9-1.4v7.2
		c0,2.7-0.2,5.6-0.6,7.8h0.4c1-2.4,3.3-4.2,7.7-4.2c3.7,0,8,1.3,8,9.1v15c-0.6,0.3-1.8,0.6-3.4,0.6c-1.7,0-2.8-0.2-3.5-0.6v-13.8
		c0-2.5-0.9-4.1-3.7-4.1c-2.6,0-3.9,1.3-4.8,2.8V168.3z"/>
	<path fill="#7C746D" d="M300,156.5c0,8.5-4.5,13.1-11.8,13.1c-7.6,0-11.8-4.4-11.8-13.1c0-7.8,4.8-12.4,11.8-12.4
		C295.3,144.1,300,148.5,300,156.5z M288.2,164c3.3,0,4.7-2.7,4.7-7.4c0-4.2-1.7-6.8-4.7-6.8c-3.2,0-4.7,2.6-4.7,6.8
		C283.5,161.2,285.1,164,288.2,164z"/>
	<path fill="#7C746D" d="M310.6,148.5c1.3-3.1,4.2-4.3,7.4-4.3c6.2,0,9.2,4.9,9.2,11.9c0,8.6-4.5,13.6-11.6,13.6
		c-1.7,0-3.4-0.3-4.5-0.9v10.9c-0.6,0.3-1.7,0.6-3.4,0.6c-1.7,0-2.8-0.2-3.5-0.6v-34c1.4-0.7,3.5-1.1,5.6-1.1l0.4,3.8H310.6z
		 M311,163c0.8,0.3,1.9,0.6,3.1,0.6c4.3,0,6-2.8,6-7.1c0-4.4-1.8-6.2-4.8-6.2c-2.1,0-3.5,1-4.3,2.1V163z"/>
</g>
</svg>
